<svg width="784" height="716" viewBox="0 0 784 716" fill="none" xmlns="http://www.w3.org/2000/svg">
<path d="M185.75 624.613C159.969 624.613 146.785 607.035 139.461 583.305L77.3516 379.105C76.1797 374.711 74.7148 369.438 74.7148 363.578C74.7148 349.223 86.1406 338.09 101.668 338.09C115.438 338.09 124.227 345.707 128.914 361.82L183.992 556.059H188.973L317 135.648C324.91 109.867 338.387 98.7344 368.27 98.7344H680.867C697.566 98.7344 708.992 108.988 708.992 124.516C708.992 140.629 697.566 150.883 680.867 150.883H368.855L235.555 580.082C227.645 605.277 213.289 624.613 185.75 624.613ZM424.52 564.848C411.043 564.848 400.789 554.887 400.789 542.289C400.789 535.551 401.961 531.449 406.355 525.59L488.094 412.797L411.043 306.742C405.77 300.004 404.012 295.316 404.012 287.992C404.012 274.809 415.73 263.969 429.793 263.969C440.633 263.969 447.078 267.484 454.402 278.031L522.957 377.055H524.422L590.926 278.324C598.543 267.484 604.695 263.969 614.949 263.969C629.012 263.969 639.559 273.93 639.559 286.82C639.559 292.68 637.801 297.953 633.406 304.105L552.254 414.262L632.82 523.832C637.215 529.398 638.68 534.672 638.68 541.117C638.68 554.887 627.84 564.848 613.191 564.848C602.645 564.848 597.078 561.039 588.582 549.613L519.734 451.469H518.562L449.129 549.613C440.926 561.039 435.359 564.848 424.52 564.848Z" fill="white"/>
<path d="M144 352L187.481 508.863" stroke="white" stroke-width="10" stroke-linecap="round"/>
<path d="M462 271L523 358" stroke="white" stroke-width="10" stroke-linecap="round"/>
<path d="M519 471L462 554" stroke="white" stroke-width="10" stroke-linecap="round"/>
<path d="M642 314L570 410" stroke="white" stroke-width="10" stroke-linecap="round"/>
<path d="M383 168L249 604" stroke="white" stroke-width="10" stroke-linecap="round"/>
<path d="M680 168L401 168" stroke="white" stroke-width="10" stroke-linecap="round"/>
</svg>
